<svg xmlns="http://www.w3.org/2000/svg" viewBox="0 0 832 1024" role="img"><path d="M64 1024h704a64 64 0 0064-64V258.745L573.255 0H64A64 64 0 000 64v896a64 64 0 0064 64zM560 77.255L754.745 272H624a64 64 0 01-64-64zM64 64h432v144a128.145 128.145 0 00128 128h144v624H64z"/><path d="M598.753 896c60.593 0 105.848-31.587 105.848-88.991 0-53.456-30.524-77.298-84.891-100.533l-15.946-6.834c-27.487-11.997-39.332-19.742-39.332-38.877 0-15.49 11.845-27.335 30.525-27.335 18.375 0 30.22 7.745 41.154 27.335l49.81-31.89c-20.956-37.055-50.114-51.178-90.813-51.178-56.948 0-93.547 36.447-93.547 84.435 0 52.089 30.524 76.843 76.69 96.433l15.946 6.833c29.31 12.909 46.622 20.654 46.622 42.522 0 18.375-17.009 31.587-43.433 31.587-31.435 0-49.355-16.553-63.023-38.876l-52.088 30.068C500.954 867.754 539.375 896 598.753 896zm-246.776 0c56.645 0 95.521-30.22 95.521-96.433V581.342h-63.934v217.314c0 32.043-13.364 40.244-34.32 40.244-22.02 0-31.132-15.035-41.155-32.802L256 837.533C271.186 869.576 300.8 896 351.977 896z"/></svg>